<?xml version="1.0" encoding="utf-8"?>
<!-- Generator: Adobe Illustrator 12.0.0, SVG Export Plug-In . SVG Version: 6.00 Build 51448)  -->
<!DOCTYPE svg PUBLIC "-//W3C//DTD SVG 1.0//EN" "http://www.w3.org/TR/2001/REC-SVG-20010904/DTD/svg10.dtd" [
	<!ENTITY ns_svg "http://www.w3.org/2000/svg">
	<!ENTITY ns_xlink "http://www.w3.org/1999/xlink">
]>
<svg  version="1.0" id="Layer_1" xmlns="&ns_svg;" xmlns:xlink="&ns_xlink;" width="355.664" height="77.867"
	 viewBox="0 0 355.664 77.867" overflow="visible" enable-background="new 0 0 355.664 77.867" xml:space="preserve">
<g>
	<g enable-background="new    ">
		<path fill="#084983" d="M80.073,65.437h2.022l1.536,4.622l1.539-4.622h2.02v6.633h-1.391v-4.366l-1.495,4.366h-1.397l-1.443-4.366
			v4.366h-1.391V65.437z"/>
		<path fill="#084983" d="M92.408,69.953l1.625,0.297c-0.209,0.642-0.54,1.13-0.991,1.466c-0.452,0.335-1.017,0.503-1.694,0.503
			c-1.074,0-1.868-0.376-2.384-1.13c-0.407-0.604-0.61-1.365-0.61-2.285c0-1.099,0.268-1.959,0.802-2.582
			c0.535-0.622,1.211-0.933,2.029-0.933c0.918,0,1.643,0.326,2.173,0.977c0.531,0.651,0.785,1.648,0.762,2.992h-4.094
			c0.012,0.521,0.144,0.925,0.396,1.214c0.252,0.29,0.567,0.434,0.944,0.434c0.256,0,0.472-0.075,0.646-0.226
			C92.186,70.529,92.318,70.287,92.408,69.953z M92.501,68.187c-0.012-0.508-0.134-0.894-0.367-1.158s-0.517-0.396-0.851-0.396
			c-0.357,0-0.653,0.14-0.886,0.418c-0.233,0.279-0.348,0.658-0.344,1.136H92.501z"/>
		<path fill="#084983" d="M97.846,72.07v-2.828c-0.213,0.017-0.361,0.068-0.444,0.153c-0.083,0.085-0.229,0.338-0.438,0.759
			l-0.778,1.917h-1.754l0.871-1.829c0.441-0.916,0.9-1.441,1.376-1.574c-0.356-0.146-0.628-0.521-0.818-1.127
			c-0.143-0.452-0.274-0.723-0.392-0.813c-0.118-0.089-0.394-0.134-0.827-0.134v-1.164c0.321-0.021,0.545-0.031,0.673-0.031
			c0.359,0,0.667,0.085,0.922,0.256s0.495,0.594,0.72,1.272c0.174,0.528,0.313,0.861,0.417,1.001
			c0.104,0.139,0.261,0.213,0.47,0.221v-2.711h1.617v2.711c0.209,0,0.367-0.073,0.473-0.218c0.106-0.146,0.244-0.48,0.415-1.004
			c0.221-0.669,0.456-1.091,0.705-1.266c0.25-0.175,0.57-0.262,0.96-0.262c0.112,0,0.329,0.01,0.65,0.031v1.164
			c-0.429,0-0.704,0.044-0.824,0.134s-0.251,0.36-0.395,0.813c-0.189,0.606-0.462,0.982-0.818,1.127
			c0.476,0.133,0.935,0.658,1.376,1.574l0.871,1.829h-1.754l-0.772-1.917c-0.139-0.341-0.268-0.574-0.386-0.699
			c-0.118-0.125-0.286-0.196-0.502-0.212v2.828H97.846z"/>
		<path fill="#084983" d="M108.838,72.07h-4.672v1.75h-1.328v-3.188h0.672c0.279-0.333,0.509-0.853,0.69-1.561
			c0.182-0.708,0.291-1.919,0.325-3.634h4.977v5.195h0.664v3.188h-1.328V72.07z M107.885,70.632l0.006-3.75h-1.975
			c-0.065,1.831-0.333,3.081-0.805,3.75H107.885z"/>
		<path fill="#084983" d="M110.654,65.437h1.734l1.473,4.707l1.441-4.707h1.688l-2.171,6.381l-0.395,1.159
			c-0.143,0.387-0.279,0.683-0.408,0.888c-0.129,0.204-0.278,0.37-0.446,0.497c-0.168,0.127-0.374,0.226-0.619,0.297
			c-0.245,0.07-0.521,0.106-0.83,0.106c-0.313,0-0.62-0.036-0.92-0.106l-0.148-1.374c0.254,0.054,0.484,0.082,0.689,0.082
			c0.378,0,0.657-0.121,0.839-0.361c0.181-0.241,0.32-0.548,0.417-0.92L110.654,65.437z"/>
		<path fill="#084983" d="M117.984,65.437h1.633v2.43h2.344v-2.43h1.633v6.633h-1.633v-2.789h-2.344v2.789h-1.633V65.437z"/>
		<path fill="#084983" d="M126.461,67.46l-1.484-0.289c0.167-0.64,0.454-1.114,0.86-1.421c0.407-0.308,1.012-0.461,1.814-0.461
			c0.729,0,1.271,0.093,1.628,0.278c0.357,0.186,0.608,0.42,0.753,0.706c0.146,0.285,0.218,0.809,0.218,1.571l-0.023,2.048
			c0,0.583,0.026,1.013,0.079,1.29s0.151,0.573,0.296,0.89h-1.617c-0.042-0.117-0.095-0.289-0.157-0.518
			c-0.027-0.104-0.047-0.173-0.059-0.206c-0.279,0.291-0.577,0.509-0.895,0.654s-0.657,0.218-1.017,0.218
			c-0.636,0-1.137-0.185-1.503-0.556s-0.549-0.838-0.549-1.405c0-0.375,0.083-0.708,0.25-1.002s0.4-0.519,0.7-0.674
			c0.3-0.156,0.733-0.292,1.299-0.409c0.763-0.154,1.292-0.297,1.586-0.431v-0.174c0-0.337-0.078-0.577-0.232-0.72
			c-0.154-0.144-0.446-0.215-0.875-0.215c-0.29,0-0.516,0.061-0.679,0.184C126.693,66.938,126.562,67.153,126.461,67.46z
			 M128.641,68.882c-0.209,0.075-0.541,0.165-0.994,0.269c-0.454,0.104-0.75,0.206-0.889,0.307c-0.213,0.162-0.32,0.369-0.32,0.619
			c0,0.246,0.085,0.458,0.256,0.638c0.17,0.18,0.387,0.269,0.651,0.269c0.294,0,0.576-0.104,0.843-0.313
			c0.198-0.158,0.328-0.352,0.39-0.582c0.042-0.15,0.064-0.436,0.064-0.857V68.882z"/>
		<path fill="#084983" d="M131.806,65.437h1.523v0.974c0.198-0.333,0.465-0.604,0.802-0.811s0.711-0.312,1.122-0.312
			c0.717,0,1.326,0.302,1.826,0.905s0.75,1.444,0.75,2.522c0,1.107-0.252,1.968-0.756,2.582s-1.115,0.921-1.832,0.921
			c-0.341,0-0.65-0.073-0.928-0.218c-0.277-0.146-0.569-0.396-0.875-0.75v3.343h-1.633V65.437z M133.416,68.64
			c0,0.746,0.138,1.297,0.414,1.653c0.276,0.356,0.612,0.534,1.008,0.534c0.38,0,0.697-0.164,0.949-0.491s0.379-0.863,0.379-1.609
			c0-0.696-0.13-1.212-0.391-1.55c-0.26-0.337-0.583-0.506-0.967-0.506c-0.4,0-0.732,0.166-0.997,0.497
			C133.547,67.5,133.416,67.99,133.416,68.64z"/>
		<path fill="#084983" d="M138.748,68.66c0-0.583,0.134-1.146,0.401-1.692c0.267-0.545,0.646-0.961,1.136-1.249
			c0.49-0.287,1.037-0.431,1.641-0.431c0.934,0,1.698,0.326,2.295,0.977c0.596,0.651,0.895,1.475,0.895,2.469
			c0,1.003-0.301,1.834-0.903,2.494c-0.603,0.66-1.36,0.99-2.274,0.99c-0.565,0-1.105-0.137-1.618-0.412
			c-0.513-0.274-0.903-0.677-1.17-1.208S138.748,69.421,138.748,68.66z M140.419,68.753c0,0.658,0.146,1.161,0.436,1.511
			c0.291,0.35,0.649,0.524,1.075,0.524c0.426,0,0.783-0.175,1.072-0.524c0.288-0.35,0.433-0.857,0.433-1.523
			c0-0.649-0.145-1.149-0.433-1.499c-0.289-0.35-0.646-0.524-1.072-0.524c-0.426,0-0.784,0.175-1.075,0.524
			C140.565,67.592,140.419,68.096,140.419,68.753z"/>
		<path fill="#084983" d="M151.344,72.07h-4.672v1.75h-1.328v-3.188h0.672c0.278-0.333,0.509-0.853,0.69-1.561
			c0.182-0.708,0.29-1.919,0.325-3.634h4.977v5.195h0.664v3.188h-1.328V72.07z M150.391,70.632l0.006-3.75h-1.975
			c-0.065,1.831-0.333,3.081-0.805,3.75H150.391z"/>
		<path fill="#084983" d="M153.727,65.437h1.633v2.43h2.344v-2.43h1.633v6.633h-1.633v-2.789h-2.344v2.789h-1.633V65.437z"/>
		<path fill="#084983" d="M162.204,67.46l-1.484-0.289c0.167-0.64,0.454-1.114,0.86-1.421c0.407-0.308,1.012-0.461,1.814-0.461
			c0.729,0,1.271,0.093,1.628,0.278c0.356,0.186,0.607,0.42,0.753,0.706c0.145,0.285,0.218,0.809,0.218,1.571l-0.023,2.048
			c0,0.583,0.026,1.013,0.079,1.29s0.151,0.573,0.296,0.89h-1.617c-0.043-0.117-0.095-0.289-0.157-0.518
			c-0.027-0.104-0.046-0.173-0.058-0.206c-0.279,0.291-0.578,0.509-0.896,0.654s-0.657,0.218-1.018,0.218
			c-0.635,0-1.136-0.185-1.502-0.556s-0.549-0.838-0.549-1.405c0-0.375,0.083-0.708,0.25-1.002c0.167-0.293,0.4-0.519,0.7-0.674
			c0.3-0.156,0.733-0.292,1.299-0.409c0.764-0.154,1.292-0.297,1.587-0.431v-0.174c0-0.337-0.077-0.577-0.232-0.72
			c-0.155-0.144-0.446-0.215-0.875-0.215c-0.29,0-0.516,0.061-0.678,0.184C162.436,66.938,162.304,67.153,162.204,67.46z
			 M164.383,68.882c-0.209,0.075-0.541,0.165-0.994,0.269c-0.453,0.104-0.75,0.206-0.889,0.307c-0.213,0.162-0.32,0.369-0.32,0.619
			c0,0.246,0.085,0.458,0.256,0.638c0.17,0.18,0.388,0.269,0.651,0.269c0.294,0,0.576-0.104,0.843-0.313
			c0.197-0.158,0.327-0.352,0.389-0.582c0.042-0.15,0.064-0.436,0.064-0.857V68.882z"/>
		<path fill="#084983" d="M172.885,65.437v6.633h-1.617v-2.758h-0.151c-0.353,0-0.611,0.049-0.775,0.147
			c-0.165,0.098-0.348,0.306-0.549,0.622l-0.099,0.131l-1.074,1.857h-1.899l1.167-1.926c0.332-0.55,0.633-0.866,0.903-0.95
			c-0.457-0.029-0.828-0.215-1.112-0.559c-0.285-0.343-0.427-0.781-0.427-1.313c0-0.429,0.094-0.794,0.282-1.098
			c0.188-0.304,0.438-0.511,0.749-0.621s0.775-0.166,1.391-0.166H172.885z M171.268,66.562h-1.172c-0.431,0-0.735,0.066-0.91,0.197
			c-0.175,0.132-0.262,0.35-0.262,0.655c0,0.305,0.099,0.524,0.297,0.658s0.522,0.201,0.974,0.201h1.073V66.562z"/>
		<path fill="#084983" d="M177.471,68.66c0-0.583,0.134-1.146,0.401-1.692c0.267-0.545,0.646-0.961,1.135-1.249
			c0.49-0.287,1.037-0.431,1.642-0.431c0.934,0,1.698,0.326,2.295,0.977s0.895,1.475,0.895,2.469c0,1.003-0.301,1.834-0.903,2.494
			c-0.603,0.66-1.36,0.99-2.274,0.99c-0.565,0-1.104-0.137-1.618-0.412c-0.513-0.274-0.903-0.677-1.17-1.208
			C177.605,70.067,177.471,69.421,177.471,68.66z M179.143,68.753c0,0.658,0.146,1.161,0.436,1.511
			c0.291,0.35,0.649,0.524,1.075,0.524s0.783-0.175,1.072-0.524c0.288-0.35,0.433-0.857,0.433-1.523
			c0-0.649-0.145-1.149-0.433-1.499c-0.289-0.35-0.646-0.524-1.072-0.524s-0.784,0.175-1.075,0.524
			C179.289,67.592,179.143,68.096,179.143,68.753z"/>
		<path fill="#084983" d="M189.749,62.703h1.109c-0.035,0.528-0.164,0.927-0.387,1.2c-0.223,0.272-0.771,0.408-1.647,0.408
			c-0.104,0-0.209-0.002-0.313-0.006h-0.209c-0.52,0-0.941,0.062-1.267,0.184c-0.326,0.123-0.592,0.361-0.8,0.714
			c-0.207,0.354-0.314,0.923-0.322,1.709c0.24-0.486,0.551-0.85,0.933-1.09s0.836-0.361,1.363-0.361c0.81,0,1.495,0.338,2.057,1.015
			c0.562,0.676,0.843,1.46,0.843,2.352c0,0.928-0.296,1.726-0.887,2.392c-0.591,0.667-1.362,1-2.316,1
			c-0.654,0-1.229-0.168-1.726-0.506c-0.496-0.337-0.851-0.798-1.064-1.383c-0.213-0.585-0.319-1.554-0.319-2.907
			c0-1.59,0.272-2.732,0.816-3.428c0.545-0.695,1.495-1.042,2.852-1.042h0.826C189.518,62.953,189.671,62.869,189.749,62.703z
			 M186.459,68.801c0,0.605,0.141,1.083,0.421,1.436c0.281,0.353,0.625,0.529,1.032,0.529c0.438,0,0.798-0.182,1.078-0.547
			c0.281-0.365,0.422-0.835,0.422-1.41c0-0.588-0.143-1.063-0.427-1.423c-0.285-0.361-0.637-0.541-1.056-0.541
			c-0.407,0-0.754,0.177-1.04,0.532C186.603,67.729,186.459,68.205,186.459,68.801z"/>
		<path fill="#084983" d="M192.419,65.437h1.523v0.974c0.197-0.333,0.465-0.604,0.803-0.811c0.337-0.208,0.711-0.312,1.122-0.312
			c0.717,0,1.325,0.302,1.825,0.905s0.75,1.444,0.75,2.522c0,1.107-0.252,1.968-0.756,2.582s-1.115,0.921-1.832,0.921
			c-0.341,0-0.65-0.073-0.928-0.218c-0.277-0.146-0.568-0.396-0.875-0.75v3.343h-1.633V65.437z M194.029,68.64
			c0,0.746,0.138,1.297,0.414,1.653c0.275,0.356,0.611,0.534,1.008,0.534c0.381,0,0.697-0.164,0.949-0.491
			c0.253-0.327,0.379-0.863,0.379-1.609c0-0.696-0.13-1.212-0.391-1.55c-0.26-0.337-0.582-0.506-0.967-0.506
			c-0.4,0-0.732,0.166-0.996,0.497C194.161,67.5,194.029,67.99,194.029,68.64z"/>
		<path fill="#084983" d="M200.962,67.46l-1.484-0.289c0.167-0.64,0.453-1.114,0.86-1.421s1.012-0.461,1.814-0.461
			c0.729,0,1.271,0.093,1.628,0.278c0.356,0.186,0.607,0.42,0.753,0.706s0.218,0.809,0.218,1.571l-0.023,2.048
			c0,0.583,0.026,1.013,0.079,1.29s0.151,0.573,0.296,0.89h-1.617c-0.043-0.117-0.095-0.289-0.157-0.518
			c-0.026-0.104-0.046-0.173-0.058-0.206c-0.279,0.291-0.578,0.509-0.896,0.654s-0.657,0.218-1.018,0.218
			c-0.636,0-1.136-0.185-1.503-0.556c-0.365-0.371-0.549-0.838-0.549-1.405c0-0.375,0.083-0.708,0.25-1.002
			c0.166-0.293,0.4-0.519,0.7-0.674c0.301-0.156,0.733-0.292,1.299-0.409c0.764-0.154,1.292-0.297,1.587-0.431v-0.174
			c0-0.337-0.077-0.577-0.232-0.72c-0.154-0.144-0.445-0.215-0.875-0.215c-0.29,0-0.516,0.061-0.678,0.184
			C201.194,66.938,201.063,67.153,200.962,67.46z M203.142,68.882c-0.209,0.075-0.541,0.165-0.994,0.269
			c-0.453,0.104-0.75,0.206-0.89,0.307c-0.213,0.162-0.319,0.369-0.319,0.619c0,0.246,0.085,0.458,0.256,0.638
			c0.17,0.18,0.388,0.269,0.651,0.269c0.294,0,0.575-0.104,0.843-0.313c0.197-0.158,0.327-0.352,0.389-0.582
			c0.043-0.15,0.064-0.436,0.064-0.857V68.882z"/>
		<path fill="#084983" d="M208.164,69.343v-1.141c0.282,0,0.487-0.02,0.615-0.059c0.127-0.04,0.248-0.136,0.362-0.288
			s0.171-0.326,0.171-0.521c0-0.208-0.07-0.401-0.212-0.578c-0.141-0.177-0.353-0.265-0.635-0.265c-0.217,0-0.41,0.05-0.58,0.149
			s-0.325,0.336-0.464,0.71l-1.383-0.32c0.14-0.581,0.438-1.016,0.895-1.307s0.978-0.436,1.563-0.436
			c0.743,0,1.318,0.183,1.728,0.549c0.408,0.366,0.612,0.825,0.612,1.378c0,0.345-0.088,0.631-0.265,0.858
			c-0.176,0.227-0.454,0.438-0.833,0.633c0.456,0.133,0.798,0.335,1.023,0.606c0.227,0.271,0.34,0.608,0.34,1.012
			c0,0.517-0.225,0.961-0.674,1.334c-0.449,0.373-1.095,0.559-1.938,0.559c-1.472,0-2.371-0.617-2.7-1.852l1.492-0.297
			c0.24,0.651,0.638,0.977,1.191,0.977c0.307,0,0.552-0.086,0.735-0.26c0.185-0.173,0.276-0.376,0.276-0.611
			c0-0.259-0.096-0.462-0.288-0.61c-0.191-0.148-0.442-0.222-0.753-0.222H208.164z"/>
		<path fill="#084983" d="M211.744,68.66c0-0.583,0.134-1.146,0.4-1.692c0.268-0.545,0.646-0.961,1.137-1.249
			c0.489-0.287,1.036-0.431,1.641-0.431c0.934,0,1.698,0.326,2.295,0.977s0.895,1.475,0.895,2.469c0,1.003-0.301,1.834-0.903,2.494
			c-0.603,0.66-1.36,0.99-2.274,0.99c-0.565,0-1.104-0.137-1.618-0.412c-0.513-0.274-0.903-0.677-1.171-1.208
			C211.877,70.067,211.744,69.421,211.744,68.66z M213.416,68.753c0,0.658,0.146,1.161,0.436,1.511
			c0.291,0.35,0.649,0.524,1.075,0.524s0.783-0.175,1.072-0.524c0.288-0.35,0.433-0.857,0.433-1.523
			c0-0.649-0.145-1.149-0.433-1.499c-0.289-0.35-0.646-0.524-1.072-0.524s-0.784,0.175-1.075,0.524
			C213.561,67.592,213.416,68.096,213.416,68.753z"/>
		<path fill="#084983" d="M219.412,65.437h3.564c0.73,0,1.277,0.144,1.641,0.431s0.545,0.719,0.545,1.297
			c0,0.371-0.1,0.693-0.299,0.968c-0.2,0.274-0.451,0.457-0.753,0.549c0.428,0.112,0.746,0.323,0.956,0.631
			c0.209,0.308,0.314,0.646,0.314,1.013c0,0.517-0.176,0.937-0.527,1.26c-0.353,0.323-0.873,0.484-1.561,0.484h-3.881V65.437z
			 M221.052,68.187h1.048c0.506,0,0.872-0.068,1.098-0.206c0.226-0.137,0.339-0.353,0.339-0.647c0-0.278-0.105-0.476-0.315-0.595
			c-0.211-0.118-0.584-0.177-1.121-0.177h-1.048V68.187z M221.052,70.945h1.285c0.463,0,0.801-0.061,1.014-0.181
			c0.212-0.121,0.318-0.338,0.318-0.65c0-0.325-0.122-0.549-0.365-0.671c-0.243-0.123-0.716-0.185-1.418-0.185h-0.834V70.945z"/>
		<path fill="#084983" d="M227.774,67.46l-1.484-0.289c0.167-0.64,0.453-1.114,0.86-1.421s1.012-0.461,1.814-0.461
			c0.729,0,1.271,0.093,1.628,0.278c0.356,0.186,0.607,0.42,0.753,0.706c0.145,0.285,0.218,0.809,0.218,1.571l-0.023,2.048
			c0,0.583,0.026,1.013,0.079,1.29s0.151,0.573,0.296,0.89h-1.617c-0.043-0.117-0.095-0.289-0.157-0.518
			c-0.027-0.104-0.046-0.173-0.058-0.206c-0.279,0.291-0.578,0.509-0.896,0.654c-0.318,0.146-0.657,0.218-1.018,0.218
			c-0.635,0-1.137-0.185-1.502-0.556c-0.367-0.371-0.55-0.838-0.55-1.405c0-0.375,0.083-0.708,0.25-1.002s0.4-0.519,0.7-0.674
			c0.301-0.156,0.733-0.292,1.299-0.409c0.764-0.154,1.292-0.297,1.587-0.431v-0.174c0-0.337-0.077-0.577-0.231-0.72
			c-0.155-0.144-0.447-0.215-0.876-0.215c-0.29,0-0.516,0.061-0.678,0.184C228.005,66.938,227.875,67.153,227.774,67.46z
			 M229.954,68.882c-0.209,0.075-0.541,0.165-0.994,0.269c-0.453,0.104-0.75,0.206-0.89,0.307c-0.213,0.162-0.319,0.369-0.319,0.619
			c0,0.246,0.085,0.458,0.256,0.638c0.171,0.18,0.388,0.269,0.651,0.269c0.294,0,0.575-0.104,0.843-0.313
			c0.197-0.158,0.327-0.352,0.39-0.582c0.042-0.15,0.063-0.436,0.063-0.857V68.882z"/>
		<path fill="#084983" d="M232.439,65.437h5.586v1.414h-1.977v5.219h-1.633v-5.219h-1.977V65.437z"/>
		<path fill="#084983" d="M242.572,69.953l1.625,0.297c-0.209,0.642-0.54,1.13-0.991,1.466s-1.017,0.503-1.694,0.503
			c-1.074,0-1.868-0.376-2.384-1.13c-0.407-0.604-0.61-1.365-0.61-2.285c0-1.099,0.268-1.959,0.802-2.582
			c0.535-0.622,1.211-0.933,2.028-0.933c0.919,0,1.644,0.326,2.174,0.977c0.531,0.651,0.785,1.648,0.762,2.992h-4.094
			c0.012,0.521,0.144,0.925,0.396,1.214c0.252,0.29,0.566,0.434,0.943,0.434c0.257,0,0.472-0.075,0.646-0.226
			C242.35,70.529,242.482,70.287,242.572,69.953z M242.666,68.187c-0.012-0.508-0.134-0.894-0.367-1.158s-0.517-0.396-0.851-0.396
			c-0.357,0-0.653,0.14-0.886,0.418c-0.233,0.279-0.348,0.658-0.344,1.136H242.666z"/>
		<path fill="#084983" d="M246.058,65.437h5.461v6.633h-1.633v-5.211h-2.211v2.979c0,0.758-0.081,1.29-0.244,1.596
			c-0.162,0.306-0.343,0.507-0.54,0.603c-0.198,0.096-0.516,0.144-0.953,0.144c-0.26,0-0.603-0.038-1.028-0.113v-1.293
			c0.035,0,0.126,0.004,0.272,0.013c0.17,0.012,0.302,0.019,0.395,0.019c0.221,0,0.355-0.078,0.406-0.234
			c0.05-0.156,0.075-0.59,0.075-1.301V65.437z"/>
		<path fill="#084983" d="M253.211,65.437h1.633v2.758h1.638c0.643,0,1.136,0.05,1.48,0.15c0.345,0.1,0.631,0.315,0.859,0.646
			c0.229,0.331,0.343,0.715,0.343,1.151c0,0.641-0.204,1.122-0.612,1.445c-0.409,0.322-1.021,0.483-1.839,0.483h-3.502V65.437z
			 M254.844,70.96h1.52c0.476,0,0.78-0.083,0.913-0.25c0.134-0.167,0.2-0.365,0.2-0.594c0-0.321-0.115-0.542-0.345-0.663
			c-0.23-0.121-0.639-0.181-1.227-0.181h-1.062V70.96z"/>
		<path fill="#084983" d="M260.426,65.437h1.633v2.43h2.344v-2.43h1.633v6.633h-1.633v-2.789h-2.344v2.789h-1.633V65.437z"/>
		<path fill="#084983" d="M268.903,67.46l-1.484-0.289c0.167-0.64,0.453-1.114,0.86-1.421s1.012-0.461,1.814-0.461
			c0.729,0,1.271,0.093,1.628,0.278c0.356,0.186,0.607,0.42,0.753,0.706c0.145,0.285,0.218,0.809,0.218,1.571l-0.023,2.048
			c0,0.583,0.026,1.013,0.079,1.29s0.151,0.573,0.296,0.89h-1.617c-0.043-0.117-0.095-0.289-0.157-0.518
			c-0.027-0.104-0.046-0.173-0.058-0.206c-0.279,0.291-0.578,0.509-0.896,0.654c-0.318,0.146-0.657,0.218-1.018,0.218
			c-0.635,0-1.137-0.185-1.502-0.556c-0.367-0.371-0.55-0.838-0.55-1.405c0-0.375,0.083-0.708,0.25-1.002s0.4-0.519,0.7-0.674
			c0.301-0.156,0.733-0.292,1.299-0.409c0.764-0.154,1.292-0.297,1.587-0.431v-0.174c0-0.337-0.077-0.577-0.231-0.72
			c-0.155-0.144-0.447-0.215-0.876-0.215c-0.29,0-0.516,0.061-0.678,0.184C269.134,66.938,269.003,67.153,268.903,67.46z
			 M271.083,68.882c-0.209,0.075-0.541,0.165-0.994,0.269c-0.453,0.104-0.75,0.206-0.89,0.307c-0.213,0.162-0.319,0.369-0.319,0.619
			c0,0.246,0.085,0.458,0.256,0.638c0.171,0.18,0.388,0.269,0.651,0.269c0.294,0,0.575-0.104,0.843-0.313
			c0.197-0.158,0.327-0.352,0.39-0.582c0.042-0.15,0.063-0.436,0.063-0.857V68.882z"/>
		<path fill="#084983" d="M279.584,65.437v6.633h-1.617v-2.758h-0.151c-0.352,0-0.61,0.049-0.775,0.147
			c-0.164,0.098-0.347,0.306-0.548,0.622l-0.099,0.131l-1.075,1.857h-1.898l1.167-1.926c0.332-0.55,0.634-0.866,0.904-0.95
			c-0.457-0.029-0.828-0.215-1.113-0.559c-0.284-0.343-0.427-0.781-0.427-1.313c0-0.429,0.094-0.794,0.281-1.098
			c0.188-0.304,0.438-0.511,0.749-0.621c0.313-0.11,0.775-0.166,1.392-0.166H279.584z M277.967,66.562h-1.172
			c-0.432,0-0.734,0.066-0.909,0.197c-0.176,0.132-0.263,0.35-0.263,0.655c0,0.305,0.099,0.524,0.298,0.658
			c0.197,0.134,0.522,0.201,0.973,0.201h1.073V66.562z"/>
		<path fill="#084983" d="M284.483,65.437h1.633v2.711c0.271-0.033,0.462-0.123,0.574-0.268c0.111-0.146,0.247-0.464,0.405-0.954
			c0.209-0.653,0.438-1.07,0.685-1.253s0.571-0.274,0.974-0.274c0.124,0,0.338,0.01,0.644,0.031l0.006,1.164
			c-0.429,0-0.703,0.043-0.823,0.131c-0.119,0.091-0.249,0.363-0.388,0.815c-0.189,0.61-0.462,0.986-0.817,1.127
			c0.515,0.154,0.949,0.635,1.306,1.442c0.02,0.042,0.04,0.085,0.063,0.131l0.911,1.83h-1.754l-0.812-1.917
			c-0.166-0.387-0.311-0.636-0.432-0.746c-0.122-0.11-0.303-0.166-0.542-0.166v2.828h-1.633V65.437z"/>
		<path fill="#084983" d="M289.97,68.66c0-0.583,0.134-1.146,0.4-1.692c0.268-0.545,0.646-0.961,1.137-1.249
			c0.489-0.287,1.036-0.431,1.641-0.431c0.934,0,1.698,0.326,2.295,0.977s0.895,1.475,0.895,2.469c0,1.003-0.301,1.834-0.903,2.494
			c-0.603,0.66-1.36,0.99-2.274,0.99c-0.565,0-1.104-0.137-1.618-0.412c-0.513-0.274-0.903-0.677-1.171-1.208
			C290.104,70.067,289.97,69.421,289.97,68.66z M291.642,68.753c0,0.658,0.146,1.161,0.436,1.511
			c0.291,0.35,0.649,0.524,1.075,0.524s0.783-0.175,1.072-0.524c0.288-0.35,0.433-0.857,0.433-1.523
			c0-0.649-0.145-1.149-0.433-1.499c-0.289-0.35-0.646-0.524-1.072-0.524s-0.784,0.175-1.075,0.524
			C291.788,67.592,291.642,68.096,291.642,68.753z"/>
		<path fill="#084983" d="M297.567,65.437h1.523v0.974c0.197-0.333,0.465-0.604,0.802-0.811c0.338-0.208,0.712-0.312,1.123-0.312
			c0.717,0,1.325,0.302,1.825,0.905s0.75,1.444,0.75,2.522c0,1.107-0.252,1.968-0.756,2.582s-1.114,0.921-1.832,0.921
			c-0.341,0-0.65-0.073-0.928-0.218c-0.277-0.146-0.568-0.396-0.875-0.75v3.343h-1.633V65.437z M299.176,68.64
			c0,0.746,0.138,1.297,0.413,1.653c0.276,0.356,0.612,0.534,1.009,0.534c0.38,0,0.697-0.164,0.949-0.491
			c0.253-0.327,0.379-0.863,0.379-1.609c0-0.696-0.13-1.212-0.391-1.55c-0.26-0.337-0.582-0.506-0.967-0.506
			c-0.4,0-0.732,0.166-0.996,0.497C299.308,67.5,299.176,67.99,299.176,68.64z"/>
		<path fill="#084983" d="M304.821,65.437h5.484v6.633h-1.633v-5.219h-2.219v5.219h-1.633V65.437z"/>
		<path fill="#084983" d="M311.697,68.66c0-0.583,0.134-1.146,0.4-1.692c0.268-0.545,0.646-0.961,1.137-1.249
			c0.489-0.287,1.036-0.431,1.641-0.431c0.934,0,1.698,0.326,2.295,0.977s0.895,1.475,0.895,2.469c0,1.003-0.301,1.834-0.903,2.494
			c-0.603,0.66-1.36,0.99-2.274,0.99c-0.565,0-1.104-0.137-1.618-0.412c-0.513-0.274-0.903-0.677-1.171-1.208
			C311.831,70.067,311.697,69.421,311.697,68.66z M313.369,68.753c0,0.658,0.146,1.161,0.436,1.511
			c0.291,0.35,0.649,0.524,1.075,0.524s0.783-0.175,1.072-0.524c0.288-0.35,0.433-0.857,0.433-1.523
			c0-0.649-0.145-1.149-0.433-1.499c-0.289-0.35-0.646-0.524-1.072-0.524s-0.784,0.175-1.075,0.524
			C313.514,67.592,313.369,68.096,313.369,68.753z"/>
		<path fill="#084983" d="M319.294,65.437h1.523v0.974c0.197-0.333,0.465-0.604,0.803-0.811c0.337-0.208,0.711-0.312,1.122-0.312
			c0.717,0,1.325,0.302,1.825,0.905s0.75,1.444,0.75,2.522c0,1.107-0.252,1.968-0.756,2.582s-1.115,0.921-1.832,0.921
			c-0.341,0-0.65-0.073-0.928-0.218c-0.277-0.146-0.568-0.396-0.875-0.75v3.343h-1.633V65.437z M320.904,68.64
			c0,0.746,0.138,1.297,0.414,1.653c0.275,0.356,0.611,0.534,1.008,0.534c0.381,0,0.697-0.164,0.949-0.491
			c0.253-0.327,0.379-0.863,0.379-1.609c0-0.696-0.13-1.212-0.391-1.55c-0.26-0.337-0.582-0.506-0.967-0.506
			c-0.4,0-0.732,0.166-0.996,0.497C321.036,67.5,320.904,67.99,320.904,68.64z"/>
		<path fill="#084983" d="M327.837,67.46l-1.484-0.289c0.167-0.64,0.453-1.114,0.86-1.421s1.012-0.461,1.814-0.461
			c0.729,0,1.271,0.093,1.628,0.278c0.356,0.186,0.607,0.42,0.753,0.706s0.218,0.809,0.218,1.571l-0.023,2.048
			c0,0.583,0.026,1.013,0.079,1.29s0.151,0.573,0.296,0.89h-1.617c-0.043-0.117-0.095-0.289-0.157-0.518
			c-0.026-0.104-0.046-0.173-0.058-0.206c-0.279,0.291-0.578,0.509-0.896,0.654s-0.657,0.218-1.018,0.218
			c-0.636,0-1.136-0.185-1.503-0.556c-0.365-0.371-0.549-0.838-0.549-1.405c0-0.375,0.083-0.708,0.25-1.002
			c0.166-0.293,0.4-0.519,0.7-0.674c0.301-0.156,0.733-0.292,1.299-0.409c0.764-0.154,1.292-0.297,1.587-0.431v-0.174
			c0-0.337-0.077-0.577-0.232-0.72c-0.154-0.144-0.445-0.215-0.875-0.215c-0.29,0-0.516,0.061-0.678,0.184
			C328.069,66.938,327.938,67.153,327.837,67.46z M330.017,68.882c-0.209,0.075-0.541,0.165-0.994,0.269
			c-0.453,0.104-0.75,0.206-0.89,0.307c-0.213,0.162-0.319,0.369-0.319,0.619c0,0.246,0.085,0.458,0.256,0.638
			c0.17,0.18,0.388,0.269,0.651,0.269c0.294,0,0.575-0.104,0.843-0.313c0.197-0.158,0.327-0.352,0.389-0.582
			c0.043-0.15,0.064-0.436,0.064-0.857V68.882z"/>
		<path fill="#084983" d="M333.174,65.437h1.633v5.219h2.328v-5.219h1.633v5.219h0.648v3.164h-1.32v-1.75h-4.922V65.437z"/>
		<path fill="#084983" d="M340.506,65.437h1.57v4.167l2.516-4.167h1.602v6.633h-1.57v-4.235l-2.547,4.235h-1.57V65.437z"/>
		<path fill="#084983" d="M353.15,65.437v6.633h-1.617v-2.758h-0.151c-0.352,0-0.61,0.049-0.774,0.147
			c-0.165,0.098-0.348,0.306-0.549,0.622l-0.1,0.131l-1.074,1.857h-1.898l1.167-1.926c0.332-0.55,0.634-0.866,0.903-0.95
			c-0.457-0.029-0.827-0.215-1.112-0.559c-0.284-0.343-0.427-0.781-0.427-1.313c0-0.429,0.094-0.794,0.281-1.098
			c0.188-0.304,0.438-0.511,0.749-0.621s0.775-0.166,1.392-0.166H353.15z M351.533,66.562h-1.172c-0.432,0-0.734,0.066-0.909,0.197
			c-0.175,0.132-0.263,0.35-0.263,0.655c0,0.305,0.1,0.524,0.297,0.658c0.199,0.134,0.523,0.201,0.975,0.201h1.072V66.562z"/>
	</g>
	<path fill="#084983" d="M98.73,21.089c-4.819,0-8.022,1.587-9.609,4.706c-0.822,1.616-1.275,3.203-1.36,4.791l-0.057,1.304h27.128
		v8.022H87.704c0,5.612,1.899,9.212,5.698,10.829c1.502,0.425,3.288,0.652,5.357,0.652h16.073v8.078H98.305
		c-3.175,0-5.924-0.256-8.22-0.766C81.099,55.645,76.62,48.416,76.62,37.02c0-8.561,2.098-14.854,6.293-18.907
		c2.325-2.24,4.989-3.713,8.022-4.422c2.324-0.51,4.507-0.765,6.548-0.765c0.51,0,0.879,0,1.105,0h16.243v8.164H98.73z
		 M123.307,13.011h21.345c10.857,0,17.546,4.054,20.098,12.161c1.19,3.827,1.786,7.795,1.786,11.849
		c0,8.333-2.324,14.4-6.973,18.255c-2.126,1.729-4.422,2.891-6.86,3.486c-1.956,0.482-4.563,0.709-7.852,0.709h-21.543V13.011z
		 M133.058,21.089v30.303h11.424c1.899,0,3.657-0.228,5.301-0.652c2.551-0.992,4.28-3.005,5.187-6.038
		c0.567-1.843,0.851-4.677,0.851-8.447c0-3.373-0.283-6.236-0.851-8.561c-0.34-1.417-1.077-2.75-2.211-3.997
		c-1.842-1.729-3.798-2.608-5.811-2.608H133.058z M182.806,13.011v27.808c0,0.313,0,0.737,0,1.275c0,1.9,0.369,3.884,1.049,5.896
		c1.672,2.977,4.734,4.479,9.156,4.479c4.762,0,7.994-1.502,9.723-4.479c0.736-2.098,1.105-4.507,1.105-7.172V13.011h9.695v28.007
		c0,4.223-0.455,7.71-1.418,10.432c-2.24,4.619-6.549,7.342-12.955,8.135c-1.162,0.142-2.324,0.227-3.43,0.256l-3.117,0.084
		c-1.588,0.057-3.289-0.057-5.104-0.312c-6.52-0.907-10.828-3.628-12.896-8.163c-0.992-2.807-1.504-6.266-1.504-10.432V13.011
		H182.806z M236.38,13.011h10.404l19.842,46.46h-10.885L251.46,48.33H231.25l-4.223,11.141h-10.346L236.38,13.011z M241.228,22.167
		l-6.803,17.943h13.805L241.228,22.167z M269.859,13.011h12.443l19.02,33.392l-0.51-33.392h10.035v46.46h-11.395l-20.014-35.122
		l0.453,35.122h-10.033V13.011z M330.462,21.146h-15.08v-8.107h40.281v8.107h-15.166v38.325h-10.035V21.146z"/>
	<path fill="#084983" d="M33.307,77.867c0,0-0.454-7.172,2.636-15.563c3.061-8.391,8.192-12.358,8.192-12.358h-7.568
		c0,0-0.17-0.454-0.17-2.183c0-1.701,2.523-2.807,4.507-3.346c1.984-0.537,8.221,0.114,8.674-7.029
		c0.454-7.143-7.058-12.643-7.058-12.643s1.899,5.584-1.814,11.736c-3.685,6.151-6.52,7.936-6.803,10.176
		c-0.255,2.211,0.142,3.288,0.142,3.288H16.526c0,0,7.653,5.046,10.091,12.529c2.438,7.512,2.353,15.335,2.353,15.335
		C19.842,75.09,0,58.791,0,39.089C0,22.791,14.598,8.787,24.208,2.919c0,0,5.017,2.041,5.13,5.301
		c0.369,10.914-17.801,16.611-17.433,26.646c0.227,6.322,5.528,10.121,10.12,11.736c4.592,1.588,8.476,0.992,8.476,0.992
		s0.624-3.855,1.644-5.33c2.977-4.336,7.682-9.212,7.767-13.549c0.17-8.674-3.09-11.65-3.09-11.65s0,1.899-1.786,5.612
		c-1.814,3.685-9.156,9.553-9.212,14.429c-0.057,2.891,0.425,4.904,0.793,5.527c0.567,0.851,0.652,1.418,0,1.785
		c-0.624,0.369-1.786-0.453-2.154-0.793c-0.397-0.369-2.721-1.814-2.268-7.965c0.454-6.123,11.253-10.658,11.849-19.757
		c0.454-7.144-2.551-10.659-3.175-11.396c-0.624-0.708-2.977-3.43-2.977-3.43C29.14,0.567,30.614,0,31.323,0
		c5.698,0,31.351,17.518,31.351,39.089C62.674,59.018,42.293,75.43,33.307,77.867z"/>
</g>
</svg>
